PathFileType	4	(X/Y/Z)	C:/Users/beibeiliu/ov580/test_trc/User2\sequence.5_training_dense_left.trc
DataRate	CameraRate	NumFrames	NumMarkers	Units	OrigDataRate	OrigDataStartFrame	OrigNumFrames
120	120	24	19	mm	120	365	417
Frame#	Time	ThumbCMC			ThumbMCP			ThumbIP			ThumbTip			IndexMCP			IndexPIP			IndexTip			MiddleMCP			MiddlePIP			MiddleTip			RingMCP			RingPIP			RingTip			PinkyMCP			PinkyPIP			PinkyTip			BackHand1			BackHand2			BackHand3	
		X0	Y0	Z0	X1	Y1	Z1	X2	Y2	Z2	X3	Y3	Z3	X4	Y4	Z4	X5	Y5	Z5	X6	Y6	Z6	X7	Y7	Z7	X8	Y8	Z8	X9	Y9	Z9	X10	Y10	Z10	X11	Y11	Z11	X12	Y12	Z12	X13	Y13	Z13	X14	Y14	Z14	X15	Y15	Z15	X16	Y16	Z16	X17	Y17	Z17	X18	Y18	Z18	
364	3.03333	-159.153	39.0383	101.083	-123.022	35.3317	89.4406	-90.4335	22.886	78.4323	-74.9153	2.79528	77.3574	-154.171	-12.3356	31.6048	-141.648	-20.5332	9.72721	-128.277	-29.6513	-11.5547	-136.025	-35.0143	46.0214	-97.1277	-32.4884	40.7514	-74.1544	-14.5587	65.2513	-123.685	-46.7425	66.4318	-93.0446	-35.8401	69.2244	-86.5542	-10.2741	89.9611	-121.614	-54.6184	90.0527	-94.3359	-32.1337	92.3517	-101.349	-6.95046	107.182	-178.233	-33.8575	105.163	-194.565	-15.8136	128.888	-189.864	2.57788	93.1541	
365	3.04167	-160.998	36.7852	100.926	-122.556	33.9405	86.9837	-92.3833	21.9506	76.814	-75.7012	-1.84438	74.1983	-160.042	-10.8987	35.0168	-147.677	-22.0238	10.3447	-133.771	-33.9535	-14.4079	-137.876	-33.4315	44.4612	-100.973	-35.3304	39.502	-75.8432	-17.2311	60.3459	-123.589	-44.9815	62.4829	-92.663	-35.5278	68.6918	-88.6737	-10.0755	87.7719	-123.455	-55.1693	88.2181	-95.1362	-35.4878	90.7486	-98.8143	-10.0532	107.474	-177.216	-32.1326	97.9363	-193.894	-19.6961	127.113	-191.718	3.082	96.5871	
366	3.05	-159.871	35.4013	99.5977	-123.246	37.0088	87.4876	-91.3969	19.5977	75.5195	-73.4021	-2.35662	72.5975	-158.423	-10.3923	32.2009	-145.133	-22.6856	8.7877	-126.965	-35.6226	-9.27034	-136.303	-35.7874	43.0671	-99.6628	-34.4816	39.3176	-73.5595	-16.7833	65.2076	-123.977	-47.5437	63.2173	-94.2891	-39.8225	68.8597	-88.1155	-12.3455	91.7447	-123.643	-54.5198	86.9355	-96.8483	-38.7523	91.3858	-101.989	-10.4375	109.508	-180.317	-32.3332	96.8079	-196.818	-16.4818	125.711	-193.076	2.74869	94.7349	
367	3.05833	-159.398	39.2178	100.078	-121.223	34.4676	88.0026	-93.1229	18.3384	79.5839	-75.2442	-5.2467	75.4921	-150.88	-15.7609	31.8386	-135.342	-26.4097	15.0369	-112.043	-32.4149	-3.81795	-136.211	-40.2886	47.6753	-100.092	-39.8356	42.8738	-76.0951	-21.3262	69.0234	-126.493	-49.7967	67.0712	-96.3657	-42.4884	70.3775	-89.9627	-12.5616	96.5016	-126.387	-58.617	91.7419	-97.2409	-42.0713	94.2606	-101.527	-13.6378	109.077	-178.089	-34.3269	99.1863	-198.368	-16.5041	125.279	-191.713	6.18011	92.6259	
368	3.06667	-159.808	35.3628	102.33	-118.881	33.8287	89.231	-87.4332	18.3382	78.7359	-70.6227	-6.4349	74.5538	-144.962	-15.2966	33.797	-121.852	-26.174	15.2429	-98.2099	-34.0112	3.6633	-133.7	-41.6161	48.3709	-96.0878	-40.3943	48.544	-77.0508	-19.9567	70.455	-121.976	-50.2074	66.8483	-94.8733	-42.6049	72.7627	-89.7228	-11.5468	96.3375	-122.34	-57.454	89.9599	-95.3632	-40.1389	96.6082	-98.8571	-16.3405	114.324	-178.853	-33.1471	98.2694	-196.373	-18.0917	126.247	-190.125	4.06915	91.9576	
369	3.075	-157.135	31.8661	99.4747	-120.688	28.376	91.947	-89.4216	12.9574	79.4491	-72.2993	-2.48539	78.315	-145.338	-18.06	38.6372	-120.633	-28.443	17.1292	-99.7811	-37.1497	7.41809	-132.08	-42.9392	48.1453	-98.2287	-39.6926	46.3544	-78.7121	-20.3332	76.3829	-120.916	-54.0784	69.4305	-91.3991	-42.0225	75.903	-89.6457	-12.879	97.9257	-127.055	-57.7764	92.2029	-95.4285	-46.0024	98.8623	-100.524	-15.9827	113.513	-176.094	-36.5214	100.332	-197.367	-22.138	127.315	-190.429	4.93249	94.0021	
370	3.08333	-155.764	34.0685	99.597	-119.178	29.5108	91.4459	-89.5198	11.0136	78.7321	-70.0452	-7.97567	73.4265	-149.213	-12.6224	35.612	-129.669	-23.531	12.1459	-109.842	-33.3978	-2.26061	-135.017	-39.498	47.606	-98.6726	-39.9937	44.8879	-79.7366	-15.4525	74.5238	-122.681	-50.6875	65.9715	-91.7132	-40.9155	72.2942	-89.6889	-13.2935	95.7674	-127.453	-59.3926	92.5416	-95.8326	-44.1324	94.5807	-101.8	-13.7288	113.941	-178.844	-35.8862	98.478	-195.687	-19.2565	126.507	-187.464	0.689277	94.7817	
371	3.09167	-156.947	35.1183	101.801	-118.065	29.3658	86.3099	-90.3054	13.3039	76.868	-71.451	-5.12983	72.7962	-153.682	-13.242	30.5847	-138.468	-25.7178	6.96069	-122.489	-38.1451	-10.6681	-134.272	-39.9433	43.8508	-96.3504	-39.0613	45.2544	-81.1279	-17.3422	74.1092	-126.699	-54.8069	69.0704	-94.5797	-45.6718	71.9174	-89.0812	-16.4126	94.1008	-122.15	-62.1754	89.5473	-95.6598	-46.9045	94.1319	-102.271	-17.0777	109.919	-180.906	-33.5802	101.245	-194.994	-20.0993	124.959	-189.921	3.88878	96.1693	
372	3.1	-156.77	34.9605	100.352	-118.192	32.2491	87.2392	-90.754	12.0253	74.0572	-71.1352	-10.7728	67.1443	-157.273	-13.9228	31.7721	-146.138	-27.2066	9.1068	-133.387	-37.3787	-14.142	-137.41	-41.9953	45.7588	-99.6103	-39.0817	42.5167	-81.3619	-20.582	69.7849	-127.705	-54.2083	66.4975	-95.1788	-46.8238	71.0427	-90.0463	-13.9683	92.7671	-123.265	-58.9134	86.5549	-95.111	-46.2408	94.3905	-101.683	-15.9533	109.686	-178.363	-38.2927	102.42	-193.533	-17.6576	127.037	-188.64	0.973374	97.5429	
373	3.10833	-155.582	36.0016	98.2782	-120.087	30.5862	86.8525	-90.5198	12.7734	72.5166	-71.1164	-7.26925	65.6836	-158.892	-13.1631	30.2452	-147.989	-24.3644	5.73675	-135.986	-35.6182	-16.3894	-138.415	-42.2407	45.0751	-98.3515	-41.3732	43.6967	-82.334	-19.4265	72.8986	-125.559	-54.5272	65.0416	-93.7104	-42.515	69.8155	-89.7744	-16.4087	94.067	-124.744	-62.8607	91.2646	-95.1996	-42.8435	92.0363	-100.325	-17.6743	107.683	-178.588	-37.4929	100.58	-194.006	-18.2277	128.038	-190.008	-0.527462	94.4782	
374	3.11667	-154.869	35.4333	99.6704	-118.558	29.742	84.4872	-91.5764	14.7259	74.0734	-73.6649	-9.20551	67.4565	-156.354	-14.9969	33.196	-143.359	-27.0743	8.50614	-127.23	-34.2912	-11.1509	-133.777	-43.6906	44.6586	-101.1	-41.4512	41.3661	-81.1055	-19.3287	75.9274	-126.161	-53.8816	66.783	-92.9675	-44.7715	71.6701	-90.1273	-15.2498	93.9084	-124.763	-59.2873	87.0865	-94.2018	-44.3708	95.7445	-100.038	-19.1643	111.171	-178.746	-39.4044	99.3138	-192.387	-20.6728	126.286	-189.717	2.66577	92.0137	
375	3.125	-156.59	32.8988	102.364	-118.955	28.863	86.7406	-87.43	15.3189	74.0246	-70.2792	-9.28912	66.5154	-149.214	-17.9625	36.2004	-131.522	-27.5412	12.4109	-107.372	-35.8971	-7.11063	-135.787	-41.445	47.9021	-95.6896	-41.6113	46.2856	-80.08	-20.6148	74.4416	-126.871	-52.9607	67.2238	-94.1248	-45.9842	69.3555	-88.3596	-19.3279	98.379	-122.696	-62.8321	91.5397	-95.8398	-46.9626	95.1894	-100.903	-18.6869	111.527	-177.446	-37.8997	98.5118	-194.879	-21.1788	126.494	-189.539	1.9373	96.8778	
376	3.13333	-154.548	31.7098	102.681	-115.946	30.4024	88.0892	-88.7187	12.5567	77.4222	-69.1914	-5.86652	71.3579	-140.222	-19.4241	35.5918	-118.152	-26.6512	15.5879	-96.2474	-34.4811	6.66863	-132.494	-42.2661	48.4256	-93.9818	-39.2592	46.0227	-76.7824	-19.8884	75.0535	-120.319	-55.1114	67.4795	-91.4203	-49.753	74.7809	-86.0999	-21.2227	94.1157	-121.951	-61.2434	89.2147	-94.1437	-48.2281	97.1359	-101.061	-17.2148	111.862	-179.282	-35.6459	102.835	-193.481	-19.7927	123.507	-184.76	1.04542	92.5056	
377	3.14167	-152.131	35.6186	103.233	-116.123	29.3927	89.4255	-87.5216	13.766	78.6752	-68.2623	-3.58936	72.8116	-136.682	-14.6342	35.4527	-113.486	-22.4057	19.612	-89.6996	-34.1429	11.7772	-128.764	-39.2493	44.4271	-94.2875	-40.4705	45.1334	-74.6286	-22.602	77.0551	-120.215	-51.2978	65.75	-92.0505	-48.0595	73.1684	-85.8217	-20.7123	95.338	-123.786	-60.1592	90.807	-93.304	-49.3564	98.2807	-97.6437	-19.3887	111.972	-176.331	-32.2672	101.544	-191.196	-21.886	126.389	-185.053	2.34969	94.3679	
378	3.15	-150.809	34.2297	100.771	-114.318	29.9642	88.2843	-83.5122	17.302	76.5581	-68.4352	-5.69397	71.6066	-138.825	-16.0718	34.3852	-116.465	-22.2975	14.9846	-94.686	-35.7527	6.22859	-130.974	-39.4594	46.9304	-92.3348	-42.1946	49.1948	-73.6924	-22.313	74.8199	-124.248	-53.0023	68.9636	-90.6861	-48.537	72.5665	-85.6205	-18.4603	96.9618	-121.401	-61.2845	90.6006	-91.9917	-47.378	98.4356	-94.8667	-18.6967	108.715	-175.446	-34.9305	103.707	-192.655	-22.7807	125.414	-186.159	4.80465	95.2631	
379	3.15833	-150.413	37.3272	100.963	-113.977	33.8371	88.5061	-87.5845	16.2231	78.0538	-65.4324	-4.58951	69.4955	-145.676	-13.1816	35.7222	-128.873	-23.3198	14.5543	-107.198	-32.3194	-5.68646	-131.913	-39.2314	44.2053	-97.3111	-43.6212	44.6114	-75.3538	-22.1723	69.7177	-121.278	-50.2811	62.7855	-93.1704	-48.5078	70.1334	-84.635	-21.1766	90.4248	-121.16	-58.7253	87.0534	-92.6205	-47.1635	93.1871	-93.7501	-20.7325	110.806	-174.781	-35.4753	104.63	-191.197	-20.6241	126.045	-183.942	6.95722	94.4816	
380	3.16667	-150.371	33.7232	99.6695	-112.979	31.6773	85.3298	-84.327	15.4403	72.5685	-71.1709	-8.51572	68.3782	-150.302	-11.6285	29.8849	-136.47	-22.36	8.92834	-122.028	-28.6908	-13.5208	-136.086	-38.5431	45.9351	-98.1325	-43.9479	41.5799	-74.4092	-19.9356	69.1678	-123.864	-51.3612	63.0846	-91.1624	-45.1645	66.6322	-84.9202	-18.8517	90.0029	-121.947	-60.0072	86.8642	-94.1811	-47.2472	90.1931	-95.2733	-19.829	108.153	-175.052	-35.7111	98.7284	-189.624	-17.1457	123.753	-183.03	3.32879	93.1471	
381	3.175	-152.312	32.8546	99.0444	-115.934	31.0257	83.0287	-86.1661	15.1615	67.5331	-71.6436	-7.64363	65.0188	-153.544	-14.4878	29.648	-144.032	-17.3559	7.81679	-128.487	-32.9662	-18.5722	-134.825	-41.7041	43.1081	-98.7941	-42.7377	39.4136	-75.1796	-23.3655	63.9216	-126.686	-53.9662	63.3968	-94.1333	-46.3285	64.1354	-83.8149	-22.0325	86.8284	-125.425	-59.3909	86.4592	-93.4226	-47.3018	89.4498	-96.8638	-18.9771	102.433	-176.598	-35.4549	100.219	-191.269	-18.4663	127.876	-185.8	3.77065	96.5079	
382	3.18333	-152.576	37.9339	99.5866	-119.349	29.6037	84.5298	-89	17.9801	69.2602	-73.1558	-7.03059	61.3595	-155.529	-11.4237	32.5657	-143.32	-20.9963	3.244	-128.806	-29.8292	-18.5044	-136.564	-39.308	40.7503	-100.169	-41.0644	35.3281	-73.3489	-25.2649	61.1146	-125.156	-53.5183	59.4826	-96.0135	-47.9387	62.5787	-83.6991	-21.8194	87.0849	-122.269	-62.9637	85.0481	-96.2414	-47.5236	85.4881	-94.235	-19.3652	105.565	-175.652	-32.2234	98.0337	-189.245	-18.5792	126.875	-186.97	1.55296	97.6852	
383	3.19167	-153.001	31.6377	99.0548	-117.657	32.6752	85.3824	-91.769	12.4886	70.0702	-75.8054	-11.3772	62.3286	-153.076	-10.789	30.0584	-137.196	-21.5237	8.9253	-115.126	-30.7445	-12.9105	-139.23	-41.5569	46.5235	-103.091	-45.7387	38.8777	-71.9862	-25.2408	57.4414	-127.385	-50.9966	60.5008	-96.6557	-46.539	61.6133	-85.3305	-21.1036	84.2382	-124.68	-61.6337	85.889	-95.0273	-44.7407	86.9063	-97.6071	-18.9093	107.239	-176.163	-31.5198	100.254	-192.772	-20.6275	129.376	-186.531	7.29957	96.2801	
384	3.2	-152.535	38.4737	102.883	-117.149	30.3206	85.28	-88.3368	17.4197	70.5536	-74.9258	-8.3399	65.6049	-144.357	-15.0979	32.8208	-126.501	-22.4941	14.3792	-99.6794	-35.7987	2.22572	-138.045	-38.0117	45.4929	-101.333	-44.4993	40.3489	-71.0326	-26.724	61.2488	-128.337	-52.3357	62.9682	-95.7502	-50.6965	64.886	-83.581	-25.0089	90.4012	-127.784	-60.2309	88.6614	-95.0189	-45.9579	88.4767	-96.2061	-18.0022	107.101	-175.554	-34.575	101.164	-192.022	-21.7468	128.041	-185.572	3.49079	94.9883	
385	3.20833	-150.905	32.7539	103.4	-115.914	29.4453	86.1406	-88.0783	15.896	75.1627	-70.8438	-8.00463	66.8669	-141.169	-16.6116	40.319	-117.464	-22.1273	19.7657	-88.4445	-34.3006	10.5113	-135.074	-37.8462	44.9016	-97.6168	-44.1117	41.7306	-70.3026	-28.3511	63.0775	-127.16	-53.7818	66.6574	-95.2128	-48.4736	64.5626	-82.2021	-21.9594	92.3727	-125.975	-62.0853	90.7474	-95.119	-50.2778	89.5618	-95.7708	-20.6171	108.183	-175.988	-34.9667	103.628	-191.224	-16.4709	130.537	-183.161	3.64947	98.8483	
386	3.21667	-152.058	33.102	105.293	-114.159	28.2998	87.9223	-85.5654	15.0819	74.5974	-69.571	-8.41209	68.0615	-138.505	-18.0795	36.8322	-114.28	-28.3411	22.4058	-90.073	-33.9452	10.4353	-134.745	-41.6887	46.0684	-99.4773	-44.128	39.2723	-70.9404	-27.8686	63.9931	-125.08	-53.6788	64.7131	-95.1702	-48.5258	65.6218	-81.9317	-25.5345	90.0013	-126.15	-59.431	89.0859	-91.8304	-46.499	92.5457	-96.0857	-23.0661	109.17	-173.294	-36.2206	103.361	-190.347	-18.4301	130.433	-184.625	2.38273	97.3759	
387	3.225	-148.956	35.6337	100.673	-113.212	29.9999	87.975	-85.7583	14.1004	73.5717	-69.6887	-8.03873	67.3714	-141.283	-15.8072	34.4645	-121.402	-24.9407	15.7817	-98.6079	-34.9861	4.59189	-134.342	-40.6261	43.2547	-101.305	-44.0327	38.7055	-73.8129	-28.7426	62.3143	-127.114	-53.9036	64.7189	-94.1889	-49.5554	65.6798	-83.0986	-21.9657	89.9605	-125.293	-60.9424	88.0857	-91.3924	-46.9768	92.1299	-95.1443	-22.9496	107.637	-173.983	-33.7312	103.418	-190.446	-20.9231	128.872	-183.505	4.19443	99.0302	
